<?xml version="1.0" standalone="no"?>
<!DOCTYPE svg PUBLIC "-//W3C//DTD SVG 20010904//EN"
 "http://www.w3.org/TR/2001/REC-SVG-20010904/DTD/svg10.dtd">
<svg version="1.0" xmlns="http://www.w3.org/2000/svg"
 width="934.000000pt" height="934.000000pt" viewBox="0 0 934.000000 934.000000"
 preserveAspectRatio="xMidYMid meet">

<g transform="translate(0.000000,934.000000) scale(0.100000,-0.100000)"
fill="#000000" stroke="none">
<path d="M4495 8506 c-89 -21 -140 -41 -240 -95 -207 -112 -2600 -1500 -2657
-1541 -133 -97 -250 -275 -300 -455 -23 -80 -23 -82 -26 -1092 l-3 -1013 -629
0 c-347 0 -630 -2 -630 -4 0 -2 103 -152 228 -333 125 -180 242 -349 260 -375
l33 -47 -259 -373 -259 -373 692 -3 693 -2 35 -48 c38 -51 144 -155 192 -189
67 -46 2645 -1529 2710 -1559 196 -89 436 -95 638 -16 58 23 2537 1445 2711
1555 74 47 149 115 207 187 l52 65 694 5 694 5 -260 373 -259 373 240 347
c132 191 251 362 265 380 l24 32 -635 0 -636 0 0 988 c0 646 -4 1009 -11 1048
-36 207 -151 398 -311 521 -29 23 -651 387 -1383 809 -1527 882 -1435 835
-1670 841 -95 2 -159 -2 -200 -11z m360 -257 c46 -16 517 -283 1375 -778 718
-415 1323 -766 1345 -782 101 -70 189 -191 228 -314 22 -69 22 -76 22 -755 l0
-685 -67 -3 -68 -3 0 654 c0 403 -4 675 -10 708 -16 84 -63 173 -122 232 -44
44 -277 182 -1368 812 -723 417 -1337 767 -1365 778 -72 28 -185 33 -265 13
-51 -13 -320 -164 -1375 -773 -720 -416 -1333 -773 -1361 -794 -54 -39 -113
-120 -142 -191 -15 -39 -17 -112 -22 -738 l-5 -695 -67 -3 -68 -3 0 683 c0
757 -2 735 66 870 26 52 58 94 109 143 67 66 151 116 1389 829 724 418 1336
768 1359 779 119 53 285 60 412 16z m-99 -244 c27 -8 639 -354 1359 -770 1153
-665 1316 -762 1361 -809 88 -92 84 -59 84 -788 l0 -638 -35 0 c-19 0 -35 4
-35 10 0 5 -17 14 -38 19 -42 12 -111 65 -99 77 4 4 13 2 19 -4 14 -14 58 -16
58 -3 0 5 13 4 29 -2 22 -8 36 -8 55 1 26 11 38 38 14 29 -16 -5 -108 40 -108
53 0 6 9 10 19 10 36 0 32 19 -6 39 -21 11 -58 34 -83 51 l-45 32 48 -7 c47
-6 87 0 87 14 0 4 -16 15 -35 24 -19 9 -46 34 -59 56 -14 21 -31 42 -38 45 -7
3 15 3 50 0 34 -3 62 -2 62 3 0 4 -25 28 -55 52 -30 24 -55 45 -55 46 0 1 11
0 24 -2 36 -7 41 14 6 32 -37 19 -40 45 -6 45 42 0 37 15 -17 51 -56 38 -61
51 -26 59 22 5 40 30 21 30 -5 0 -26 13 -46 29 -21 16 -42 32 -49 34 -7 2 -9
7 -6 11 3 3 25 -1 49 -9 51 -18 50 -18 50 -2 0 7 -15 22 -32 32 -31 19 -31 20
-10 23 32 5 27 16 -20 47 -24 15 -53 37 -65 48 -23 20 -30 38 -15 36 45 -7 57
20 17 41 -14 7 -25 17 -25 21 0 5 -9 17 -21 27 -17 17 -18 20 -5 25 20 8 20
31 1 47 -9 7 -13 20 -10 30 3 11 -3 21 -20 30 -27 15 -75 107 -75 145 0 29
-10 55 -20 55 -5 0 -12 -21 -16 -46 -9 -64 -49 -142 -79 -156 -27 -12 -31 -23
-14 -33 7 -5 2 -16 -12 -31 -21 -23 -22 -25 -5 -37 17 -12 15 -17 -29 -61 -26
-26 -45 -49 -42 -52 3 -4 17 -7 31 -8 l25 -1 -27 -28 c-15 -16 -46 -40 -70
-54 -41 -24 -47 -43 -14 -43 12 0 13 -3 5 -11 -8 -8 -22 -2 -53 22 -37 30 -40
34 -21 37 31 5 26 14 -22 44 -23 15 -55 40 -71 57 l-30 31 32 0 c18 0 32 4 32
10 0 5 -21 31 -46 57 -42 43 -45 48 -28 60 17 12 16 14 -6 38 -18 20 -21 27
-11 39 10 12 7 17 -17 30 -35 18 -75 97 -86 169 -4 26 -11 47 -16 47 -10 0
-20 -25 -20 -51 0 -35 -50 -133 -83 -162 -22 -20 -28 -30 -19 -34 10 -4 8 -11
-9 -29 -21 -22 -21 -62 1 -49 27 17 5 -18 -40 -61 -27 -27 -50 -52 -50 -56 0
-5 14 -8 30 -8 37 0 38 -12 5 -38 -14 -11 -25 -22 -25 -24 0 -2 23 -21 50 -42
28 -21 50 -42 50 -46 0 -6 -191 39 -910 217 -85 21 -146 39 -135 40 11 2 201
-26 423 -60 l403 -64 -71 72 c-67 67 -75 72 -143 88 -211 49 -896 221 -893
224 3 3 739 -108 811 -123 28 -5 27 -2 -30 54 l-60 60 -503 123 c-277 68 -500
125 -495 126 5 2 197 -26 427 -62 230 -36 423 -65 429 -65 15 0 -43 59 -65 66
-16 5 -18 19 -18 145 0 135 -1 141 -25 164 -23 23 -31 25 -133 25 -71 0 -112
-4 -120 -12 -8 -8 -12 -46 -12 -105 0 -53 -4 -93 -10 -93 -5 0 -276 104 -601
230 -326 127 -600 230 -610 230 -24 0 -30 -9 -399 -547 l-323 -472 -38 21
c-21 12 -60 41 -86 64 l-48 43 33 1 c39 0 55 27 27 43 -22 12 -95 89 -95 100
0 4 9 7 20 7 28 0 25 19 -7 52 -15 15 -21 28 -15 28 24 0 11 29 -23 49 -19 11
-35 25 -35 32 0 6 -11 33 -25 61 -14 27 -25 60 -25 73 0 34 -18 77 -29 70 -6
-3 -13 -27 -17 -53 -11 -75 -58 -168 -93 -187 -30 -15 -43 -45 -20 -45 6 0 -1
-14 -15 -31 -26 -31 -27 -49 0 -49 25 0 16 -16 -42 -74 -30 -30 -53 -60 -49
-66 3 -5 20 -10 37 -10 l31 0 -24 -26 c-13 -14 -50 -44 -81 -65 -61 -41 -72
-59 -38 -59 30 0 24 -12 -22 -43 -24 -17 -37 -32 -31 -38 11 -11 84 11 90 28
7 19 35 16 31 -4 -2 -9 -33 -37 -70 -61 -70 -48 -76 -62 -28 -62 49 0 44 -26
-14 -70 -29 -22 -58 -40 -64 -40 -7 0 -12 -7 -12 -15 0 -8 14 -17 35 -21 44
-8 44 -19 0 -46 -45 -26 -40 -44 11 -41 35 2 37 1 17 -10 -12 -7 -37 -25 -55
-42 -19 -16 -42 -34 -52 -40 -10 -5 -18 -14 -19 -20 -3 -14 68 -18 92 -6 11 6
27 8 35 5 13 -5 12 -10 -9 -26 -14 -11 -25 -26 -25 -34 0 -20 -47 -63 -87 -80
-18 -8 -33 -18 -33 -24 0 -15 70 -30 91 -20 10 6 30 10 45 10 25 0 21 -5 -37
-46 -35 -25 -79 -52 -96 -60 -41 -18 -42 -33 -3 -40 17 -4 30 -10 30 -14 0
-11 -115 -70 -136 -70 -17 -1 -16 -3 5 -20 26 -22 62 -26 94 -9 16 9 22 9 25
0 5 -14 37 -14 64 0 35 19 32 0 -6 -36 -22 -21 -56 -40 -82 -46 -25 -7 -44
-17 -44 -25 0 -10 -16 -14 -60 -14 -34 0 -60 -4 -60 -10 0 -17 62 -49 107 -56
42 -6 53 -16 33 -29 -5 -3 -10 -11 -10 -17 0 -11 121 -5 156 9 12 4 15 3 10
-5 -8 -13 4 -15 72 -14 23 1 42 -3 42 -8 0 -6 -155 -10 -420 -10 l-420 0 0
670 c0 661 0 670 22 727 42 113 7 91 1431 912 719 414 1327 759 1350 767 56
17 113 17 173 -1z m-584 -1092 c96 -98 359 -368 584 -600 225 -233 415 -426
424 -429 8 -3 60 -8 115 -11 177 -7 185 -14 40 -34 -71 -9 -142 -18 -156 -18
-22 -1 -118 93 -584 569 -514 525 -561 570 -591 570 -32 0 -43 -15 -422 -543
-214 -299 -396 -553 -403 -565 -15 -24 -55 -31 -46 -8 10 26 809 1221 825
1234 9 6 21 12 28 12 6 0 90 -80 186 -177z m423 -689 c215 -230 392 -421 393
-425 2 -5 -298 -9 -667 -9 -432 0 -671 3 -671 10 0 5 64 116 143 246 l143 236
184 -2 c101 0 181 3 176 7 -4 4 -83 10 -176 13 l-168 5 74 120 c41 66 88 141
104 168 21 34 36 47 52 47 18 0 118 -101 413 -416z m835 235 c291 -66 304 -70
277 -76 -18 -5 -541 113 -567 128 -34 19 35 7 290 -52z m-160 -130 c140 -33
256 -61 258 -63 15 -16 -39 -8 -203 30 -104 24 -232 53 -282 65 -51 12 -93 26
-93 31 0 11 -10 13 320 -63z m-2045 -189 c-3 -5 -10 -10 -16 -10 -5 0 -9 5 -9
10 0 6 7 10 16 10 8 0 12 -4 9 -10z m2255 -51 c290 -66 304 -70 278 -76 -20
-5 -549 116 -562 128 -18 16 15 10 284 -52z m-2300 -11 c0 -13 -23 -5 -28 10
-2 7 2 10 12 6 9 -3 16 -11 16 -16z m2810 -153 c155 -36 284 -65 288 -65 3 0
2 -4 -4 -9 -10 -11 -584 118 -584 131 0 12 0 12 300 -57z m713 -67 c22 -8 25
-13 16 -25 -19 -23 -2 -27 41 -9 47 19 50 19 50 7 0 -17 -50 -41 -72 -36 -13
4 -43 24 -68 46 -47 42 -40 45 33 17z m-3393 -488 l0 -440 -60 0 c-34 0 -60 4
-60 10 0 6 11 8 25 4 l25 -6 0 436 0 436 35 0 35 0 0 -440z m2618 410 l42 0
-82 -122 c-45 -68 -99 -147 -120 -175 l-39 -53 -295 0 -295 0 -17 -30 -17 -30
-382 0 -383 0 0 80 0 80 384 0 384 0 12 -30 12 -30 150 0 150 0 152 149 c83
83 162 155 176 160 14 6 48 9 75 6 28 -3 69 -5 93 -5z m214 -16 c4 -3 8 -11 8
-18 0 -7 61 -66 135 -132 74 -65 135 -120 135 -121 0 -1 -25 -21 -55 -44 l-55
-41 0 -239 0 -239 -25 0 -25 0 0 260 c0 143 3 260 8 260 4 1 20 11 35 24 l29
23 -112 99 c-61 54 -119 102 -128 105 -9 4 -33 24 -52 44 l-35 37 65 -7 c35
-3 68 -9 72 -11z m564 -11 c-1 -13 7 -19 27 -21 27 -3 35 -16 17 -27 -15 -9
-60 25 -60 46 0 11 4 19 9 19 5 0 8 -8 7 -17z m-1629 -45 c28 -27 33 -39 33
-80 l0 -48 -795 0 c-437 0 -795 3 -795 6 0 7 67 120 83 142 7 9 164 12 725 12
l716 0 33 -32z m-1092 -258 l0 -75 -282 -3 -283 -2 0 30 c0 16 9 44 19 61 l19
31 183 -1 c114 0 176 3 164 9 -11 5 -91 9 -178 9 -105 1 -156 4 -152 11 4 7
95 9 258 8 l252 -3 0 -75z m3 -207 l3 -73 -286 0 -285 0 0 55 0 55 173 2 172
2 -172 3 c-145 3 -173 6 -173 18 0 13 38 15 283 13 l282 -3 3 -72z m1122 2 l0
-75 -385 0 -385 0 0 75 0 75 385 0 385 0 0 -75z m658 -2 l3 -73 -291 0 -292 0
7 43 c14 92 15 96 43 100 15 2 140 4 277 3 l250 -1 3 -72z m-1494 -32 c9 -13
-4 -41 -18 -41 -18 0 -35 21 -29 36 6 16 39 19 47 5z m-289 -111 c4 -7 -57
-10 -177 -10 -122 0 -178 -4 -168 -10 8 -5 90 -10 183 -10 l167 0 0 -65 c0
-44 -4 -67 -13 -70 -7 -3 -145 -4 -307 -2 -175 1 -286 6 -272 11 20 8 22 15
22 87 l0 79 279 0 c176 0 282 -4 286 -10z m1125 -80 l0 -90 -385 0 -385 0 0
70 0 70 173 1 c105 0 164 4 152 9 -11 5 -89 9 -172 9 -95 1 -153 5 -153 11 0
6 135 10 385 10 l385 0 0 -90z m655 0 l0 -85 -304 -3 -304 -2 7 62 c4 35 10
75 13 91 l6 27 291 -2 291 -3 0 -85z m1805 -82 c0 -5 -28 -8 -62 -7 l-63 1 55
17 c52 17 69 14 70 -11z m-2424 -243 c3 -14 3 -47 -1 -73 -19 -121 21 -472 53
-472 10 0 114 209 135 270 9 25 19 66 22 92 7 55 29 84 69 94 l29 7 -6 -63
c-8 -72 -56 -199 -134 -352 -30 -59 -51 -112 -48 -119 10 -15 -83 -99 -110
-99 -35 0 -51 25 -35 56 12 21 11 29 -3 59 -31 66 -71 251 -83 385 -13 157 -3
203 48 225 46 20 57 18 64 -10z m637 -20 c-1 -11 -4 -30 -8 -42 -6 -19 -1 -25
28 -39 20 -10 39 -24 43 -33 3 -9 8 -70 11 -136 2 -66 8 -121 13 -123 15 -5
12 -28 -5 -42 -8 -7 -12 -16 -10 -21 3 -4 1 -43 -5 -86 -6 -43 -12 -95 -15
-116 -6 -51 -22 -77 -46 -77 -20 0 -20 4 -16 135 l5 136 -36 -7 c-20 -3 -73
-17 -118 -31 -90 -29 -83 -20 -130 -163 -29 -84 -39 -100 -65 -100 -27 0 -25
46 5 143 20 62 22 77 10 77 -10 0 -14 12 -14 40 0 35 4 43 33 60 38 23 47 39
88 159 16 46 38 99 49 119 12 19 20 44 18 55 -2 11 5 24 17 31 11 6 40 28 64
49 49 41 87 47 84 12z m325 -19 c116 -30 240 -106 283 -175 62 -96 27 -224
-98 -362 l-33 -36 64 17 c35 10 73 23 83 29 17 8 22 6 31 -14 8 -18 8 -26 -3
-35 -20 -17 -103 -40 -142 -40 -21 0 -51 -11 -76 -28 -89 -59 -192 -87 -215
-60 -15 18 27 65 66 74 69 17 146 80 218 178 57 78 66 129 31 188 -34 59 -168
152 -187 131 -8 -8 -54 -203 -85 -363 -22 -112 -64 -181 -81 -135 -9 22 29
390 47 457 5 20 21 46 34 56 30 24 31 32 5 32 -12 0 -38 9 -59 20 -34 17 -38
23 -36 52 2 18 3 33 4 33 18 4 101 -7 149 -19z m-3323 0 c23 -10 37 -24 41
-41 12 -47 -3 -187 -26 -250 -24 -67 -50 -95 -86 -95 -21 0 -24 4 -24 41 0 57
27 156 52 189 28 38 20 63 -24 77 -72 24 -170 -33 -218 -127 -48 -95 -67 -248
-35 -296 8 -13 15 -30 15 -38 0 -8 19 -28 42 -45 33 -25 52 -31 90 -31 42 0
132 30 148 50 3 3 19 16 36 28 l31 21 11 -25 c11 -23 9 -27 -36 -55 -127 -81
-201 -101 -293 -79 -103 25 -161 112 -162 244 0 150 85 302 220 392 84 56 151
68 218 40z m988 -26 c94 -39 137 -83 137 -139 0 -54 -50 -97 -195 -167 -63
-31 -115 -59 -115 -63 0 -4 6 -14 13 -23 15 -19 193 -152 259 -193 30 -19 52
-41 58 -59 16 -45 -1 -52 -57 -26 -26 12 -58 26 -70 31 -12 5 -74 42 -137 84
-63 41 -117 75 -119 75 -3 0 -8 -17 -12 -37 -21 -117 -27 -133 -45 -133 -32 0
-42 33 -30 97 15 84 13 117 -10 138 -26 24 -25 29 8 60 l27 25 -2 153 c-2 160
0 167 47 201 38 27 146 16 243 -24z m592 26 c23 -10 37 -24 41 -41 12 -47 -3
-187 -26 -250 -24 -67 -50 -95 -86 -95 -21 0 -24 4 -24 41 0 57 27 156 52 189
28 38 20 63 -24 77 -72 24 -170 -33 -218 -127 -48 -95 -67 -248 -35 -296 8
-13 15 -30 15 -38 0 -8 19 -28 42 -45 33 -25 52 -31 90 -31 42 0 132 30 148
50 3 3 19 16 36 28 l31 21 11 -25 c11 -23 9 -27 -36 -55 -127 -81 -201 -101
-293 -79 -103 25 -161 112 -162 244 0 150 85 302 220 392 84 56 151 68 218 40z
m-1299 -20 c3 -8 0 -24 -6 -36 -17 -32 -6 -34 28 -5 42 35 108 57 150 49 67
-13 127 -87 153 -187 13 -52 -1 -158 -26 -208 -23 -44 -93 -120 -159 -173
-156 -126 -286 -116 -315 24 -8 38 -8 73 -1 114 5 33 7 62 5 65 -3 2 -5 -1 -5
-7 0 -7 -7 -12 -15 -12 -25 0 -18 55 14 105 16 26 46 89 66 140 45 116 94 174
111 131z m1580 0 c3 -8 0 -24 -6 -36 -17 -32 -6 -34 28 -5 42 35 108 57 150
49 67 -13 127 -87 153 -187 13 -52 -1 -158 -26 -208 -23 -44 -93 -120 -159
-173 -156 -126 -286 -116 -315 24 -8 38 -8 73 -1 114 5 33 7 62 5 65 -3 2 -5
-1 -5 -7 0 -7 -7 -12 -15 -12 -25 0 -18 55 14 105 16 26 46 89 66 140 45 116
94 174 111 131z m2020 0 c3 -8 0 -24 -6 -36 -17 -32 -6 -34 28 -5 42 35 108
57 150 49 67 -13 127 -87 153 -187 13 -52 -1 -158 -26 -208 -23 -44 -93 -120
-159 -173 -156 -126 -286 -116 -315 24 -8 38 -8 73 -1 114 5 33 7 62 5 65 -3
2 -5 -1 -5 -7 0 -7 -7 -12 -15 -12 -25 0 -18 55 14 105 16 26 46 89 66 140 45
116 94 174 111 131z m-2366 -724 c0 -16 -26 -65 -80 -149 -12 -19 -11 -31 13
-100 32 -93 34 -133 7 -158 -28 -26 -50 -5 -50 49 0 47 -17 116 -29 116 -4 0
-22 -21 -41 -46 -26 -37 -30 -48 -19 -55 11 -8 5 -17 -26 -44 -45 -39 -65 -44
-72 -16 -5 19 -6 19 -61 0 -67 -23 -128 -25 -149 -3 -28 28 1 276 39 321 7 9
31 29 52 45 66 47 169 35 152 -19 -5 -15 -16 -18 -71 -16 -41 1 -67 -3 -72
-10 -8 -12 -42 -127 -38 -127 1 0 16 7 33 16 18 9 49 14 74 12 38 -3 43 -6 43
-27 0 -22 -4 -24 -56 -26 -31 -2 -66 -6 -78 -10 -25 -8 -41 -42 -41 -89 l0
-32 58 6 c107 13 119 19 175 80 86 95 86 97 41 177 -50 88 -49 83 -26 83 20 0
92 -71 92 -90 0 -26 23 -4 66 60 46 71 64 85 64 52z m128 -11 c21 -11 56 -39
79 -64 94 -102 58 -196 -94 -244 l-55 -17 4 -48 c5 -52 -9 -75 -38 -64 -13 5
-15 15 -11 46 3 28 1 43 -10 52 -13 10 -13 13 0 23 8 5 17 36 21 70 4 33 12
86 18 118 9 49 8 60 -6 76 -22 24 -20 37 6 55 29 21 41 20 86 -3z m940 -18 c2
-16 -8 -29 -42 -52 -44 -31 -66 -38 -66 -23 0 4 4 13 10 20 5 7 -4 -1 -21 -17
-40 -36 -35 -54 37 -132 30 -32 54 -68 54 -78 0 -11 5 -23 10 -26 20 -12 10
-35 -15 -35 -14 0 -43 -13 -66 -29 -52 -38 -96 -48 -117 -27 -21 21 -11 31 64
61 32 13 60 30 62 37 1 7 -25 40 -58 73 -52 51 -60 64 -60 96 0 50 35 90 113
129 69 34 91 35 95 3z m220 0 c2 -16 -8 -29 -42 -52 -44 -31 -66 -38 -66 -23
0 4 4 13 10 20 5 7 -4 -1 -21 -17 -40 -36 -35 -54 37 -132 30 -32 54 -68 54
-78 0 -11 5 -23 10 -26 20 -12 10 -35 -15 -35 -14 0 -43 -13 -66 -29 -52 -38
-96 -48 -117 -27 -21 21 -11 31 64 61 32 13 60 30 62 37 1 7 -25 40 -58 73
-52 51 -60 64 -60 96 0 50 35 90 113 129 69 34 91 35 95 3z m-448 2 c6 -8 9
-22 6 -32 -5 -15 -16 -18 -71 -16 -41 1 -67 -3 -72 -10 -8 -12 -42 -127 -38
-127 1 0 16 7 33 16 18 9 49 14 74 12 38 -3 43 -6 43 -27 0 -22 -4 -24 -56
-26 -31 -2 -66 -6 -78 -10 -25 -8 -41 -42 -41 -89 l0 -32 68 8 c37 4 80 12 96
18 37 13 36 13 36 -9 0 -24 -91 -61 -167 -69 -79 -7 -87 6 -79 122 8 101 27
188 48 213 7 9 31 29 52 45 45 32 124 40 146 13z m-349 -20 c50 -25 79 -55 79
-82 0 -28 -53 -69 -134 -104 -31 -13 -56 -27 -56 -31 0 -8 102 -86 160 -123
25 -16 40 -33 40 -45 0 -11 -2 -20 -4 -20 -15 0 -101 44 -153 79 -34 22 -64
41 -67 41 -3 0 -11 -20 -17 -45 -7 -29 -17 -45 -27 -45 -12 0 -14 11 -9 59 4
46 1 62 -12 76 -15 15 -15 17 2 29 14 11 17 29 17 109 0 88 2 97 23 112 27 20
108 15 158 -10z m-3122 -731 c25 -100 92 -196 175 -253 95 -65 2645 -1530
2691 -1546 70 -24 203 -24 275 1 41 15 2079 1182 2626 1505 131 77 209 173
236 287 l11 52 69 0 c81 0 82 -1 42 -118 -31 -92 -98 -196 -164 -254 -60 -53
-2687 -1572 -2766 -1599 -150 -53 -312 -41 -460 34 -67 34 -2556 1470 -2619
1511 -131 86 -232 236 -260 389 l-7 37 70 0 70 0 11 -46z"/>
<path d="M4850 7649 c0 -6 -7 -8 -16 -5 -8 3 -13 2 -9 -3 3 -5 -1 -12 -7 -14
-9 -4 -9 -6 1 -6 11 -1 10 -5 -5 -15 -18 -14 -18 -15 9 -25 15 -6 36 -19 47
-29 11 -10 49 -33 85 -52 65 -34 66 -34 44 -51 -30 -22 -3 -32 37 -14 114 54
183 84 204 90 14 4 34 14 45 22 18 12 17 13 -15 7 -19 -4 -61 -15 -92 -25 -32
-11 -63 -19 -71 -19 -23 0 -211 101 -234 126 -13 14 -23 20 -23 13z"/>
<path d="M4426 7549 l16 -32 -39 22 -38 23 45 -42 45 -41 -48 21 c-61 25 -73
25 -27 0 l35 -19 -30 3 c-16 2 -24 1 -16 -1 12 -4 12 -6 0 -14 -11 -7 -10 -9
4 -9 20 0 75 -53 127 -123 19 -25 42 -49 51 -52 22 -7 130 -121 122 -129 -3
-3 -18 -6 -32 -6 -14 0 -32 -4 -40 -9 -11 -7 -8 -12 13 -26 27 -18 34 -18 161
5 33 6 69 10 80 10 11 0 45 8 75 16 31 9 97 17 152 18 53 0 94 4 91 9 -2 4 5
7 16 7 12 0 21 4 21 9 0 15 -142 24 -246 16 -68 -5 -104 -3 -127 6 -18 7 -75
53 -128 103 -53 50 -119 111 -146 136 -27 25 -56 60 -64 78 -16 36 -34 44 -24
10 5 -20 2 -18 -23 10 -36 41 -47 41 -26 1z"/>
<path d="M4100 6330 c20 -13 353 -13 345 0 -4 6 -76 10 -183 10 -118 0 -172
-4 -162 -10z"/>
<path d="M4030 6195 l0 -65 65 0 65 0 0 65 0 65 -65 0 -65 0 0 -65z"/>
<path d="M4200 6195 l0 -65 65 0 65 0 0 65 0 65 -65 0 -65 0 0 -65z"/>
<path d="M4030 6035 l0 -65 65 0 65 0 0 65 0 65 -65 0 -65 0 0 -65z"/>
<path d="M4200 6035 l0 -65 65 0 65 0 0 65 0 65 -65 0 -65 0 0 -65z"/>
<path d="M4272 5933 c48 -2 129 -2 180 0 51 1 12 3 -87 3 -99 0 -141 -2 -93
-3z"/>
<path d="M4612 5843 c48 -2 129 -2 180 0 51 1 12 3 -87 3 -99 0 -141 -2 -93
-3z"/>
<path d="M3828 5833 c67 -2 177 -2 245 0 67 1 12 3 -123 3 -135 0 -190 -2
-122 -3z"/>
<path d="M4468 5493 c67 -2 177 -2 245 0 67 1 12 3 -123 3 -135 0 -190 -2
-122 -3z"/>
<path d="M4745 5400 c29 -12 348 -12 340 0 -4 6 -75 10 -183 9 -108 0 -169 -4
-157 -9z"/>
<path d="M4778 5703 c50 -2 134 -2 185 0 50 1 9 3 -93 3 -102 0 -143 -2 -92
-3z"/>
<path d="M3605 5690 c4 -6 95 -10 241 -10 154 0 233 3 229 10 -4 6 -95 10
-241 10 -154 0 -233 -3 -229 -10z"/>
<path d="M4250 5620 c20 -13 470 -13 470 0 0 6 -87 10 -242 10 -161 0 -238 -4
-228 -10z"/>
<path d="M3485 5410 c4 -6 95 -10 241 -10 154 0 233 3 229 10 -4 6 -95 10
-241 10 -154 0 -233 -3 -229 -10z"/>
<path d="M3628 5243 c50 -2 134 -2 185 0 50 1 9 3 -93 3 -102 0 -143 -2 -92
-3z"/>
<path d="M4662 5243 c48 -2 129 -2 180 0 51 1 12 3 -87 3 -99 0 -141 -2 -93
-3z"/>
<path d="M4723 5203 c71 -2 183 -2 250 0 67 1 10 3 -128 3 -137 0 -192 -2
-122 -3z"/>
<path d="M5302 5283 c48 -2 129 -2 180 0 51 1 12 3 -87 3 -99 0 -141 -2 -93
-3z"/>
<path d="M5220 5190 c21 -13 483 -13 475 0 -4 6 -97 10 -248 10 -160 0 -237
-4 -227 -10z"/>
<path d="M3440 4980 c0 -6 87 -10 243 -10 160 0 237 4 227 10 -20 13 -470 13
-470 0z"/>
<path d="M4832 4973 c48 -2 129 -2 180 0 51 1 12 3 -87 3 -99 0 -141 -2 -93
-3z"/>
<path d="M5482 5083 c48 -2 129 -2 180 0 51 1 12 3 -87 3 -99 0 -141 -2 -93
-3z"/>
<path d="M5308 5033 c67 -2 177 -2 245 0 67 1 12 3 -123 3 -135 0 -190 -2
-122 -3z"/>
<path d="M5641 4389 c-28 -62 -50 -114 -47 -116 6 -6 152 9 166 17 8 5 12 33
12 79 -1 56 -5 78 -22 101 -37 52 -52 41 -109 -81z"/>
<path d="M3548 4559 c-10 -5 -18 -21 -18 -34 0 -23 2 -24 26 -13 22 10 28 10
39 -5 10 -15 9 -32 -6 -100 -10 -45 -16 -83 -15 -85 2 -1 35 12 72 31 201 98
215 147 55 197 -69 22 -126 25 -153 9z"/>
<path d="M3132 4535 c-96 -29 -125 -77 -143 -232 -19 -164 3 -233 71 -233 74
0 150 62 200 162 46 93 53 164 21 233 -33 72 -76 92 -149 70z"/>
<path d="M4712 4535 c-96 -29 -125 -77 -143 -232 -19 -164 3 -233 71 -233 74
0 150 62 200 162 46 93 53 164 21 233 -33 72 -76 92 -149 70z"/>
<path d="M6732 4535 c-96 -29 -125 -77 -143 -232 -19 -164 3 -233 71 -233 74
0 150 62 200 162 46 93 53 164 21 233 -33 72 -76 92 -149 70z"/>
<path d="M4402 3831 c9 -16 7 -39 -11 -116 -12 -54 -20 -99 -18 -101 8 -8 108
49 118 68 18 34 1 86 -43 129 -43 41 -66 52 -46 20z"/>
<path d="M4647 3823 c-14 -14 -6 -31 12 -26 27 7 31 -7 19 -55 -6 -24 -8 -45
-5 -48 9 -9 125 56 131 73 9 22 1 30 -51 47 -49 17 -95 21 -106 9z"/>
</g>
</svg>
